<svg width="186" height="61" viewBox="0 0 186 61" fill="none" xmlns="http://www.w3.org/2000/svg">
<path fill-rule="evenodd" clip-rule="evenodd" d="M23.5486 0.720381C21.7613 1.50941 19.0937 4.1836 17.9779 6.30409C16.7621 8.61479 17.2442 10.3113 19.4767 11.5781C20.5465 12.1852 21.8527 13.3444 22.3788 14.1544C24.1368 16.8594 23.349 23.1911 21.0099 25.1614C20.6117 25.4962 20.1447 25.6269 19.9719 25.4521C19.7991 25.2767 19.6197 22.8143 19.5722 19.9806C19.4282 11.2849 17.6975 11.0993 11.0878 19.0716C8.68453 21.9709 5.10988 26.2744 3.14468 28.6354C0.570571 31.7279 -0.285948 33.1019 0.080916 33.5505C0.360865 33.893 1.87784 34.4867 3.45192 34.8697C6.08819 35.5116 6.67082 35.4736 10.8377 34.3908C13.3254 33.7443 15.5498 33.4106 15.7808 33.6495C16.0117 33.8884 16.2725 35.0066 16.3604 36.1345C16.4943 37.8489 16.7181 38.2135 17.7268 38.358C19.3928 38.5975 19.7885 37.709 19.7976 33.7125C19.8047 30.4329 19.8764 30.2278 21.266 29.4982C24.6846 27.7048 27.8231 20.9209 27.1657 16.7471C26.7165 13.8981 25.1459 11.2321 23.063 9.78424C21.1134 8.42869 20.9714 7.90266 22.1099 6.25334C25.6467 1.13002 34.1316 3.88779 33.9138 10.0903C33.8764 11.1618 34.3251 13.4002 34.9108 15.0655C37.495 22.4139 34.9229 27.3562 27.951 28.4395C26.7336 28.6287 25.2106 29.0265 24.5673 29.3244C22.4536 30.3011 20.9437 36.3155 22.4328 37.8264C22.7663 38.1647 23.5622 38.4416 24.2015 38.4416C25.2237 38.4416 25.3637 38.1904 25.3637 36.357C25.3637 33.266 25.9933 32.4636 28.7489 32.0443C32.939 31.407 36.5814 28.8861 38.3793 25.3788C39.4122 23.3634 39.4865 17.4013 38.5183 14.197L37.7764 11.7417L39.253 10.5476L40.7296 9.35307L39.1125 8.50405C38.1908 8.02058 37.1918 6.91983 36.7911 5.94623C34.8592 1.25614 28.2451 -1.35448 23.5486 0.720381ZM16.2386 25.2157C16.2765 27.6895 15.4079 29.5603 14.0607 29.9063C13.4684 30.0581 11.7407 30.541 10.2217 30.9794C5.34435 32.3862 5.1589 31.7725 9.01906 26.9958C10.8817 24.6907 13.1046 22.0406 13.9581 21.1075L15.5099 19.4105L15.8596 21.3639C16.0521 22.438 16.2229 24.1714 16.2386 25.2157ZM141.34 20.9942C140.733 22.9353 141.496 24.0863 143.39 24.0863H145.125L145.193 27.2906C145.231 29.0532 145.287 31.8792 145.32 33.571L145.378 36.6472L147.525 36.8046C149.993 36.9861 149.844 37.4085 149.701 30.622C149.575 24.7041 149.794 24.0863 152.012 24.0863C153.742 24.0863 153.774 24.0488 153.62 22.1637L153.463 20.2411L147.564 20.097C142.015 19.9617 141.646 20.0145 141.34 20.9942ZM157.108 20.3021C156.91 20.5036 156.748 24.3211 156.748 28.7861V36.9035H158.997H161.247L161.398 33.6992L161.548 30.4949H163.569H165.591L165.843 33.571L166.096 36.6472H168.37H170.644L170.789 29.4695C170.976 20.2411 170.912 19.9847 168.414 19.9847C166.172 19.9847 165.843 20.4815 165.843 23.872V26.137H163.595H161.346L161.194 23.1891L161.043 20.2411L159.256 20.0883C158.274 20.0047 157.307 20.1006 157.108 20.3021ZM174.664 20.6297C174.522 21.0045 174.469 24.762 174.546 28.9794L174.686 36.6472H179.992H185.298V34.8528V33.0583L182.108 32.9051C179.147 32.7625 178.929 32.6702 179.076 31.6233C179.212 30.6518 179.596 30.4734 181.833 30.3416C184.206 30.2022 184.455 30.0683 184.694 28.8035C185.06 26.8697 184.326 26.2144 181.594 26.0355C179.901 25.9243 179.234 25.6633 179.234 25.1116C179.234 24.5338 179.965 24.3042 182.169 24.1878L185.104 24.0335L184.948 22.137L184.793 20.2411L179.857 20.0945C176.111 19.9827 174.859 20.1119 174.664 20.6297ZM1.83641 44.2319C1.69845 44.597 1.64842 48.3458 1.72574 52.5632L1.86622 60.231H4.14017H6.41412L6.56521 56.9985L6.7163 53.7659L8.83916 53.9223L10.962 54.0787L11.1126 57.283L11.2627 60.4873H13.525H15.7879L15.6489 52.1561L15.5099 43.8249H13.4886H11.4673L11.3157 46.7728L11.1642 49.7208H8.91546H6.66678V47.4557C6.66678 44.0566 6.34085 43.5685 4.07043 43.5685C2.91426 43.5685 1.98244 43.8454 1.83641 44.2319ZM20.166 43.8859C19.549 44.5119 19.7561 56.2284 20.41 57.6844C21.1357 59.3004 24.2085 61 26.4042 61C28.6877 61 31.3533 59.5568 32.2235 57.8495C32.795 56.7283 32.9405 54.8749 32.8329 50.1002L32.6909 43.8249H30.9223H29.1536L28.8843 49.8782C28.6099 56.053 28.3128 56.8826 26.3744 56.8826C24.4061 56.8826 24.106 56.0505 23.8477 49.8685L23.5951 43.8249L22.0609 43.6726C21.217 43.5885 20.3646 43.6849 20.166 43.8859ZM36.9609 45.1066C36.9472 45.9525 36.9356 48.375 36.9356 50.4898C36.9356 52.6047 36.9472 55.7326 36.9609 57.4404L36.9861 60.5463L39.1337 60.3884L41.2814 60.231L41.434 56.9518L41.5861 53.6726L43.3289 55.386L45.0713 57.0994L46.8399 55.3604L48.6085 53.6214V57.0543V60.4873H50.8951H53.1817L53.0427 52.1981C52.9447 46.3504 52.7264 43.8495 52.3019 43.7064C51.971 43.5947 50.2887 45.0174 48.5631 46.8682C46.8379 48.719 45.2517 50.2335 45.0379 50.2335C44.8247 50.2335 43.2304 48.7339 41.4961 46.901C37.9811 43.1871 36.9988 42.7985 36.9609 45.1066ZM57.4219 44.2319C57.2839 44.597 57.2339 48.3458 57.3112 52.5632L57.4517 60.231L59.5993 60.3884L61.7469 60.5463V57.0835V53.6214L63.4135 55.2599C64.3296 56.1612 65.2276 56.8985 65.409 56.8985C65.5899 56.8985 66.4308 56.1489 67.2777 55.2322L68.8169 53.566L68.827 56.3858C68.8401 60.0577 69.2196 60.5965 71.6523 60.3945L73.622 60.231L73.7675 53.0533C73.9894 42.0894 73.6589 41.669 68.9331 46.901C67.2777 48.7339 65.7031 50.2335 65.4338 50.2335C65.1644 50.2335 63.5727 48.7339 61.897 46.901C58.8438 43.5624 57.8903 42.9933 57.4219 44.2319ZM77.7687 43.89C77.084 44.5847 77.3765 47.67 78.1269 47.67C78.6495 47.67 78.9395 48.7293 79.2058 51.6111C79.5631 55.4799 79.5444 55.5716 78.1936 56.6647C77.2381 57.4378 76.8697 58.153 76.9885 59.0046C77.1471 60.1443 77.424 60.2489 80.9002 60.4873C83.1428 60.6411 84.9331 60.5268 85.3697 60.2023C86.4077 59.4307 85.9529 57.2456 84.6325 56.6575C83.6425 56.2166 83.5157 55.7782 83.5218 52.8123C83.5299 48.78 83.8068 47.67 84.8038 47.67C85.3662 47.67 85.5183 47.1814 85.4011 45.7474L85.2444 43.8249L81.6849 43.6762C79.7273 43.5947 77.9652 43.6911 77.7687 43.89ZM89.2572 44.2319C89.1192 44.597 89.0692 48.3458 89.1465 52.5632L89.287 60.231L91.2567 60.3945C93.7141 60.5986 94.0699 60.0664 94.08 56.171L94.0876 53.1363L97.8234 56.8118C100.084 59.0354 101.985 60.4873 102.637 60.4873C103.697 60.4873 103.711 60.3607 103.575 52.1561L103.436 43.8249H101.415H99.3934L99.1408 47.6265L98.8881 51.4281L94.7748 47.4983C90.6433 43.5511 89.7211 43.0051 89.2572 44.2319ZM111.277 44.5175C104.912 47.9812 105.86 58.5442 112.709 60.4745C115.341 61.2164 116.789 61.1118 119.188 60.0064C121.974 58.7231 123.104 56.8882 123.126 53.6157L123.144 51.0025H119.354H115.564V52.7969C115.564 54.454 115.692 54.6037 117.239 54.7544C119.791 55.0031 118.343 56.3858 115.53 56.3858C112.898 56.3858 111.774 55.1174 111.774 52.1469C111.774 48.4586 115.879 46.216 118.09 48.6954C119.347 50.1043 122.891 50.1556 122.891 48.7646C122.891 47.3547 120.938 45.0835 119.032 44.2755C116.706 43.2891 113.341 43.3942 111.277 44.5175ZM126.67 44.1812C126.522 44.5739 126.463 48.3458 126.54 52.5632L126.681 60.231L131.628 60.3781C136.519 60.5232 136.592 60.5078 138.071 59.0077C139.767 57.2866 140.071 54.7816 138.807 52.9497C138.219 52.0981 138.166 51.5301 138.575 50.4396C139.284 48.5478 138.777 46.5216 137.226 45.043C136.118 43.9858 135.354 43.8013 131.445 43.6459C127.939 43.5065 126.88 43.6249 126.67 44.1812ZM142.955 43.89C142.271 44.5847 142.563 47.67 143.314 47.67C143.836 47.67 144.126 48.7293 144.392 51.6111C144.75 55.4799 144.731 55.5716 143.38 56.6647C142.425 57.4378 142.056 58.153 142.175 59.0046C142.334 60.1443 142.611 60.2489 146.087 60.4873C148.329 60.6411 150.12 60.5268 150.556 60.2023C151.594 59.4307 151.139 57.2456 149.819 56.6575C148.829 56.2166 148.702 55.7782 148.708 52.8123C148.716 48.78 148.993 47.67 149.99 47.67C150.553 47.67 150.705 47.1814 150.588 45.7474L150.431 43.8249L146.872 43.6762C144.914 43.5947 143.152 43.6911 142.955 43.89ZM154.463 44.1812C154.314 44.5739 154.256 48.3458 154.333 52.5632L154.474 60.231L156.621 60.3884L158.769 60.5463V58.2094C158.769 56.2315 158.92 55.8731 159.758 55.8731C160.396 55.8731 161.221 56.6919 162.08 58.1802C163.372 60.4171 163.488 60.4873 165.891 60.4873C167.29 60.4873 168.37 60.252 168.37 59.9474C168.37 59.6506 167.801 58.5586 167.107 57.5214C165.574 55.2332 165.574 55.2235 166.937 52.3658C167.947 50.2489 167.977 49.9151 167.316 48.0207C166.176 44.7497 164.526 43.8556 159.241 43.6459C155.732 43.5065 154.673 43.6249 154.463 44.1812ZM171.781 43.8582C171.234 44.4273 171.313 59.8582 171.865 60.2048C172.12 60.3648 174.031 60.5283 176.11 60.5683C180.944 60.6616 183.239 59.565 184.942 56.3463C187.037 52.3899 185.942 47.5793 182.358 44.9902C181.139 44.1099 179.904 43.832 176.487 43.67C174.107 43.5567 171.99 43.6418 171.781 43.8582ZM133.952 48.3709C134.388 48.9031 134.348 49.222 133.786 49.6952C132.702 50.6073 131.253 50.1397 131.067 48.8185C130.938 47.8972 131.15 47.67 132.142 47.67C132.823 47.67 133.637 47.9853 133.952 48.3709ZM162.523 48.4755C163.525 49.4932 163.52 49.9536 162.495 50.9938C161.289 52.2176 159.062 51.808 158.855 50.3242C158.764 49.6695 158.813 48.8041 158.966 48.4016C159.335 47.4245 161.531 47.4701 162.523 48.4755ZM180.41 48.9451C180.779 49.2942 181.199 50.4765 181.343 51.5726C181.703 54.3186 180.131 56.3858 177.682 56.3858H175.95V52.3268C175.95 49.5526 176.15 48.1904 176.581 48.0223C177.472 47.6757 179.615 48.192 180.41 48.9451ZM135.019 55.3604C135.019 56.2151 134.682 56.3858 132.997 56.3858C131.313 56.3858 130.976 56.2151 130.976 55.3604C130.976 54.5057 131.313 54.335 132.997 54.335C134.682 54.335 135.019 54.5057 135.019 55.3604Z" fill="#BCBCBC"/>
</svg>
